<?xml version="1.0" standalone="no"?>
<!DOCTYPE svg PUBLIC "-//W3C//DTD SVG 20010904//EN"
 "http://www.w3.org/TR/2001/REC-SVG-20010904/DTD/svg10.dtd">
<svg version="1.0" xmlns="http://www.w3.org/2000/svg"
 width="512.000000pt" height="512.000000pt" viewBox="0 0 512.000000 512.000000"
 preserveAspectRatio="xMidYMid meet">

<g transform="translate(0.000000,512.000000) scale(0.100000,-0.100000)"
fill="#000000" stroke="none">
<path d="M2500 4329 c-46 -29 -46 -29 -141 -212 -60 -116 -87 -158 -103 -162
-11 -3 -91 -16 -176 -30 -85 -14 -167 -30 -183 -36 -39 -16 -85 -72 -93 -115
-13 -72 8 -108 152 -254 74 -75 134 -144 134 -153 0 -11 -14 -20 -42 -27 -130
-32 -243 -66 -320 -96 l-88 -33 -105 17 -105 16 -49 96 c-59 114 -85 141 -143
147 -66 7 -100 -22 -164 -142 -60 -112 -36 -97 -202 -125 -114 -19 -165 -76
-147 -162 5 -22 35 -61 90 -118 l83 -85 -14 -80 c-7 -44 -13 -102 -14 -130 0
-33 -7 -60 -21 -80 -11 -16 -40 -69 -65 -117 -42 -83 -46 -88 -76 -88 -50 0
-157 -30 -234 -65 -101 -46 -179 -102 -255 -182 -368 -390 -254 -1022 226
-1259 175 -86 39 -78 1569 -82 l1359 -2 24 22 c30 28 31 78 2 104 -20 18 -61
19 -1378 24 l-1356 5 -65 23 c-168 61 -302 177 -378 327 -44 87 -62 158 -69
260 -20 332 219 621 557 675 39 6 311 10 688 10 609 0 622 0 642 20 27 27 26
81 -1 106 -20 18 -48 19 -575 24 l-554 5 41 68 c23 38 48 71 57 73 10 3 62 27
117 53 l100 48 99 -48 c114 -56 166 -63 211 -27 51 40 58 74 38 203 l-17 115
82 84 c54 54 84 94 88 114 6 29 12 32 143 75 75 25 149 48 165 51 27 7 28 6
22 -21 -3 -15 -8 -64 -12 -108 -7 -96 10 -137 72 -172 67 -39 96 -32 286 63
l172 86 177 -87 c163 -81 181 -87 223 -83 60 7 110 45 131 101 14 38 15 52 2
130 -9 60 -10 87 -3 87 6 -1 74 -22 151 -48 134 -45 141 -49 157 -83 9 -20 50
-72 91 -115 l75 -80 -16 -117 c-15 -111 -15 -120 2 -151 9 -18 30 -40 46 -49
48 -29 92 -21 200 33 l100 50 109 -55 c108 -54 110 -56 150 -122 l41 -68 -976
-5 -976 -5 -25 -29 c-28 -33 -25 -70 9 -98 19 -17 85 -18 1067 -18 832 -1
1061 -3 1121 -14 326 -59 556 -347 537 -671 -3 -49 -13 -115 -22 -145 -62
-206 -219 -369 -425 -441 -63 -22 -81 -23 -490 -29 -234 -3 -426 -7 -427 -8
-15 -12 -33 -69 -29 -88 14 -55 18 -56 473 -52 400 4 421 5 493 27 221 67 401
220 500 425 194 403 18 883 -392 1070 -79 36 -185 66 -236 66 -30 0 -34 5 -73
83 -23 45 -50 94 -61 109 -14 20 -17 36 -13 62 4 18 -1 80 -10 136 l-16 103
28 31 c15 17 54 59 86 93 54 58 57 64 57 113 0 45 -4 56 -33 85 -33 33 -29 32
-222 64 -39 6 -42 10 -95 109 -60 112 -91 142 -150 142 -61 0 -90 -28 -150
-140 l-55 -104 -109 -19 -109 -18 -121 44 c-67 25 -152 52 -191 61 -103 25
-102 25 -109 49 -4 18 18 46 129 157 73 74 138 148 144 163 16 41 13 94 -5
133 -29 62 -59 74 -265 109 -104 18 -191 34 -193 36 -1 2 -42 79 -90 171 -98
188 -117 209 -200 215 -40 3 -59 -1 -86 -18z m171 -300 c81 -157 116 -203 162
-214 12 -3 97 -18 190 -34 92 -15 170 -31 174 -35 4 -3 -54 -68 -129 -144
-103 -103 -138 -146 -146 -175 -8 -29 -5 -77 18 -225 15 -103 27 -188 25 -190
-1 -1 -80 36 -176 83 -123 60 -184 85 -210 85 -26 0 -87 -25 -209 -85 -95 -47
-175 -83 -178 -80 -3 3 7 88 22 189 18 114 25 196 21 216 -5 23 -47 74 -146
178 -76 80 -137 148 -134 150 2 2 79 17 172 33 92 15 178 31 190 34 48 12 84
59 169 221 47 90 89 162 94 159 5 -3 46 -78 91 -166z m-1402 -798 c54 -106 79
-125 183 -141 45 -7 87 -15 92 -18 4 -2 -22 -34 -58 -71 -36 -37 -70 -80 -75
-97 -5 -18 -3 -63 5 -119 7 -49 11 -91 10 -93 -2 -2 -40 15 -85 37 -46 24 -95
41 -114 41 -18 0 -70 -18 -116 -40 -45 -22 -84 -40 -85 -40 -2 0 3 37 11 83
19 119 14 138 -69 223 -38 40 -66 74 -61 77 4 2 45 10 90 17 112 17 132 31
184 134 24 47 45 86 46 86 2 0 21 -35 42 -79z m2686 -7 c55 -102 67 -112 166
-131 46 -8 90 -17 98 -19 8 -3 -10 -29 -53 -74 -36 -39 -69 -82 -72 -97 -4
-15 -2 -67 5 -116 6 -49 10 -92 7 -94 -2 -2 -40 14 -85 36 -44 23 -94 41 -111
41 -17 0 -67 -18 -111 -41 -45 -22 -83 -38 -86 -35 -3 2 1 44 8 93 7 49 9 100
6 115 -4 14 -36 57 -72 96 -36 38 -65 72 -65 74 0 3 38 10 84 17 113 17 136
33 186 130 23 45 45 81 49 81 3 0 24 -34 46 -76z"/>
<path d="M834 1929 c-41 -21 -44 -46 -44 -368 0 -393 -17 -361 188 -361 165 0
201 10 259 71 82 86 85 229 7 310 l-25 26 17 52 c31 97 -6 197 -93 248 -43 25
-57 27 -167 30 -74 2 -129 -1 -142 -8z m240 -160 c58 -46 19 -103 -72 -104
l-57 0 -3 63 -3 62 54 0 c40 0 61 -6 81 -21z m55 -285 c28 -36 27 -79 -4 -109
-22 -22 -32 -25 -105 -25 l-80 0 0 80 0 80 84 0 c79 0 86 -2 105 -26z"/>
<path d="M1753 1930 c-116 -24 -220 -107 -269 -213 -25 -54 -29 -74 -29 -152
0 -76 5 -99 27 -147 35 -75 94 -138 170 -179 60 -33 68 -34 168 -34 90 0 112
3 153 24 75 37 142 104 179 179 30 61 33 75 33 157 0 78 -4 99 -29 153 -69
150 -248 244 -403 212z m168 -170 c203 -104 127 -410 -101 -410 -186 0 -289
218 -168 356 71 81 175 101 269 54z"/>
<path d="M2400 1927 c-49 -24 -50 -39 -48 -373 3 -291 4 -313 22 -333 25 -27
79 -28 106 -1 19 19 20 33 20 206 0 114 4 183 9 179 6 -3 65 -85 132 -183 66
-97 129 -186 140 -197 25 -26 83 -25 110 2 30 29 33 73 24 388 -8 300 -9 307
-67 321 -22 5 -34 0 -59 -26 l-32 -32 6 -185 c4 -106 3 -182 -2 -177 -5 5 -66
92 -136 194 -70 102 -135 192 -144 201 -24 25 -53 30 -81 16z"/>
<path d="M3134 1929 c-43 -21 -45 -42 -42 -300 l3 -244 28 -48 c33 -55 104
-111 164 -128 62 -17 159 -8 217 21 59 30 118 95 134 148 16 51 16 495 1 523
-25 48 -105 44 -128 -7 -7 -16 -11 -103 -11 -247 0 -186 -3 -226 -16 -245 -51
-73 -188 -67 -230 10 -10 17 -13 85 -14 249 0 201 -2 229 -17 247 -22 26 -61
35 -89 21z"/>
<path d="M3982 1926 c-127 -42 -186 -169 -131 -282 24 -51 54 -71 185 -125 97
-39 144 -70 144 -95 0 -26 -45 -65 -82 -71 -57 -9 -103 4 -155 44 -55 42 -94
46 -125 15 -51 -51 -11 -119 102 -175 57 -28 74 -32 150 -32 99 0 144 19 203
84 63 70 71 153 22 237 -29 50 -90 89 -205 134 -101 39 -115 50 -107 82 14 54
88 61 173 18 72 -37 98 -37 131 -4 20 20 24 31 19 57 -16 85 -206 151 -324
113z"/>
</g>
</svg>
